<?xml version="1.0" encoding="UTF-8" standalone="no"?>
<!DOCTYPE svg PUBLIC "-//W3C//DTD SVG 1.1//EN"
 "http://www.w3.org/Graphics/SVG/1.1/DTD/svg11.dtd">
<!-- Generated by graphviz version 2.43.0 (0)
 -->
<!-- Title: qml_observer_overview Pages: 1 -->
<svg width="1087pt" height="1145pt"
 viewBox="0.00 0.00 1087.00 1145.00" xmlns="http://www.w3.org/2000/svg" xmlns:xlink="http://www.w3.org/1999/xlink">
<g id="graph0" class="graph" transform="scale(1 1) rotate(0) translate(4 1141)">
<title>qml_observer_overview</title>
<g id="clust1" class="cluster">
<title>cluster_adapters</title>
<path fill="#eef4fa" stroke="#8aa9c9" d="M337,-924C337,-924 715,-924 715,-924 721,-924 727,-930 727,-936 727,-936 727,-1091 727,-1091 727,-1097 721,-1103 715,-1103 715,-1103 337,-1103 337,-1103 331,-1103 325,-1097 325,-1091 325,-1091 325,-936 325,-936 325,-930 331,-924 337,-924"/>
<text text-anchor="middle" x="526" y="-1089.4" font-family="Helvetica,Arial,sans-serif" font-size="12.00" fill="#1f2933">1. Framework adapter layer &#160;(qml_observer.adapters)</text>
</g>
<g id="clust2" class="cluster">
<title>cluster_schemas</title>
<path fill="#eef4fa" stroke="#8aa9c9" d="M327,-815C327,-815 551,-815 551,-815 557,-815 563,-821 563,-827 563,-827 563,-891 563,-891 563,-897 557,-903 551,-903 551,-903 327,-903 327,-903 321,-903 315,-897 315,-891 315,-891 315,-827 315,-827 315,-821 321,-815 327,-815"/>
<text text-anchor="middle" x="439" y="-889.4" font-family="Helvetica,Arial,sans-serif" font-size="12.00" fill="#1f2933">2. Event schemas &#160;(qml_observer.schemas)</text>
</g>
<g id="clust8" class="cluster">
<title>cluster_telemetry</title>
<path fill="#f5f7fa" stroke="#9aa5b1" stroke-dasharray="5,2" d="M590,-594C590,-594 924,-594 924,-594 930,-594 936,-600 936,-606 936,-606 936,-782 936,-782 936,-788 930,-794 924,-794 924,-794 590,-794 590,-794 584,-794 578,-788 578,-782 578,-782 578,-606 578,-606 578,-600 584,-594 590,-594"/>
<text text-anchor="middle" x="757" y="-780.4" font-family="Helvetica,Arial,sans-serif" font-size="12.00" fill="#52606d">Telemetry &#160;(qml_observer.telemetry) &#45;&#45; opt&#45;in, disabled by default</text>
</g>
<g id="clust3" class="cluster">
<title>cluster_stats</title>
<path fill="#eef6ec" stroke="#9bb598" d="M20,-594C20,-594 495,-594 495,-594 501,-594 507,-600 507,-606 507,-606 507,-657 507,-657 507,-663 501,-669 495,-669 495,-669 20,-669 20,-669 14,-669 8,-663 8,-657 8,-657 8,-606 8,-606 8,-600 14,-594 20,-594"/>
<text text-anchor="middle" x="257.5" y="-655.4" font-family="Helvetica,Arial,sans-serif" font-size="12.00" fill="#1f2933">3. Statistics engine &#160;(qml_observer.statistics)</text>
</g>
<g id="clust4" class="cluster">
<title>cluster_detectors</title>
<path fill="#faf3e6" stroke="#c9a86a" d="M48,-500C48,-500 495,-500 495,-500 501,-500 507,-506 507,-512 507,-512 507,-561 507,-561 507,-567 501,-573 495,-573 495,-573 48,-573 48,-573 42,-573 36,-567 36,-561 36,-561 36,-512 36,-512 36,-506 42,-500 48,-500"/>
<text text-anchor="middle" x="271.5" y="-559.4" font-family="Helvetica,Arial,sans-serif" font-size="12.00" fill="#1f2933">4. Detection layer &#160;(qml_observer.detectors)</text>
</g>
<g id="clust5" class="cluster">
<title>cluster_diagnosis</title>
<path fill="#f2ecf7" stroke="#a98cc0" d="M149,-246C149,-246 389,-246 389,-246 395,-246 401,-252 401,-258 401,-258 401,-467 401,-467 401,-473 395,-479 389,-479 389,-479 149,-479 149,-479 143,-479 137,-473 137,-467 137,-467 137,-258 137,-258 137,-252 143,-246 149,-246"/>
<text text-anchor="middle" x="269" y="-465.4" font-family="Helvetica,Arial,sans-serif" font-size="12.00" fill="#1f2933">5. Diagnosis engine &#160;(qml_observer.diagnosis)</text>
</g>
<g id="clust6" class="cluster">
<title>cluster_actions</title>
<path fill="#fbeeed" stroke="#c98f8c" d="M127,-71C127,-71 425,-71 425,-71 431,-71 437,-77 437,-83 437,-83 437,-213 437,-213 437,-219 431,-225 425,-225 425,-225 127,-225 127,-225 121,-225 115,-219 115,-213 115,-213 115,-83 115,-83 115,-77 121,-71 127,-71"/>
<text text-anchor="middle" x="276" y="-211.4" font-family="Helvetica,Arial,sans-serif" font-size="12.00" fill="#1f2933">6. Action layer &#160;(qml_observer.actions)</text>
</g>
<g id="clust7" class="cluster">
<title>cluster_reporting</title>
<path fill="#eef4fa" stroke="#8aa9c9" d="M457,-71C457,-71 723,-71 723,-71 729,-71 735,-77 735,-83 735,-83 735,-212 735,-212 735,-218 729,-224 723,-224 723,-224 457,-224 457,-224 451,-224 445,-218 445,-212 445,-212 445,-83 445,-83 445,-77 451,-71 457,-71"/>
<text text-anchor="middle" x="590" y="-210.4" font-family="Helvetica,Arial,sans-serif" font-size="12.00" fill="#1f2933">7. Reporting layer &#160;(qml_observer.reporting)</text>
</g>
<g id="clust9" class="cluster">
<title>cluster_legend</title>
<path fill="transparent" stroke="#c4cdd5" d="M747,-1001C747,-1001 1059,-1001 1059,-1001 1065,-1001 1071,-1007 1071,-1013 1071,-1013 1071,-1117 1071,-1117 1071,-1123 1065,-1129 1059,-1129 1059,-1129 747,-1129 747,-1129 741,-1129 735,-1123 735,-1117 735,-1117 735,-1013 735,-1013 735,-1007 741,-1001 747,-1001"/>
<text text-anchor="middle" x="903" y="-1116.2" font-family="Helvetica,Arial,sans-serif" font-size="11.00" fill="#52606d">Legend</text>
</g>
<!-- pennylane -->
<g id="node1" class="node">
<title>pennylane</title>
<path fill="#ffffff" stroke="#5b7fa6" stroke-width="1.1" d="M413.5,-1074C413.5,-1074 344.5,-1074 344.5,-1074 338.5,-1074 332.5,-1068 332.5,-1062 332.5,-1062 332.5,-1048 332.5,-1048 332.5,-1042 338.5,-1036 344.5,-1036 344.5,-1036 413.5,-1036 413.5,-1036 419.5,-1036 425.5,-1042 425.5,-1048 425.5,-1048 425.5,-1062 425.5,-1062 425.5,-1068 419.5,-1074 413.5,-1074"/>
<text text-anchor="middle" x="379" y="-1058.4" font-family="Helvetica,Arial,sans-serif" font-size="12.00">PennyLane</text>
<text text-anchor="middle" x="379" y="-1045.4" font-family="Helvetica,Arial,sans-serif" font-size="12.00">QNode / tape</text>
</g>
<!-- pl_adapter -->
<g id="node4" class="node">
<title>pl_adapter</title>
<path fill="lightgrey" stroke="black" stroke-width="1.1" d="M446.5,-968C446.5,-968 345.5,-968 345.5,-968 339.5,-968 333.5,-962 333.5,-956 333.5,-956 333.5,-944 333.5,-944 333.5,-938 339.5,-932 345.5,-932 345.5,-932 446.5,-932 446.5,-932 452.5,-932 458.5,-938 458.5,-944 458.5,-944 458.5,-956 458.5,-956 458.5,-962 452.5,-968 446.5,-968"/>
<text text-anchor="middle" x="396" y="-946.9" font-family="Helvetica,Arial,sans-serif" font-size="12.00">PennyLaneAdapter</text>
</g>
<!-- pennylane&#45;&gt;pl_adapter -->
<g id="edge1" class="edge">
<title>pennylane&#45;&gt;pl_adapter</title>
<path fill="none" stroke="#7b8794" stroke-width="1.1" d="M382.04,-1035.59C384.8,-1018.88 388.88,-994.11 391.92,-975.69"/>
<polygon fill="#7b8794" stroke="#7b8794" stroke-width="1.1" points="394.53,-976.05 393.16,-968.23 389.35,-975.2 394.53,-976.05"/>
</g>
<!-- qiskit -->
<g id="node2" class="node">
<title>qiskit</title>
<path fill="#ffffff" stroke="#5b7fa6" stroke-width="1.1" d="M576.5,-1074C576.5,-1074 459.5,-1074 459.5,-1074 453.5,-1074 447.5,-1068 447.5,-1062 447.5,-1062 447.5,-1048 447.5,-1048 447.5,-1042 453.5,-1036 459.5,-1036 459.5,-1036 576.5,-1036 576.5,-1036 582.5,-1036 588.5,-1042 588.5,-1048 588.5,-1048 588.5,-1062 588.5,-1062 588.5,-1068 582.5,-1074 576.5,-1074"/>
<text text-anchor="middle" x="518" y="-1058.4" font-family="Helvetica,Arial,sans-serif" font-size="12.00">Qiskit</text>
<text text-anchor="middle" x="518" y="-1045.4" font-family="Helvetica,Arial,sans-serif" font-size="12.00">QuantumCircuit / VQC</text>
</g>
<!-- qk_adapter -->
<g id="node5" class="node">
<title>qk_adapter</title>
<path fill="lightgrey" stroke="black" stroke-width="1.1" d="M563.5,-968C563.5,-968 492.5,-968 492.5,-968 486.5,-968 480.5,-962 480.5,-956 480.5,-956 480.5,-944 480.5,-944 480.5,-938 486.5,-932 492.5,-932 492.5,-932 563.5,-932 563.5,-932 569.5,-932 575.5,-938 575.5,-944 575.5,-944 575.5,-956 575.5,-956 575.5,-962 569.5,-968 563.5,-968"/>
<text text-anchor="middle" x="528" y="-946.9" font-family="Helvetica,Arial,sans-serif" font-size="12.00">QiskitAdapter</text>
</g>
<!-- qiskit&#45;&gt;qk_adapter -->
<g id="edge2" class="edge">
<title>qiskit&#45;&gt;qk_adapter</title>
<path fill="none" stroke="#7b8794" stroke-width="1.1" d="M519.79,-1035.59C521.4,-1019.03 523.77,-994.55 525.55,-976.19"/>
<polygon fill="#7b8794" stroke="#7b8794" stroke-width="1.1" points="528.22,-975.95 526.33,-968.23 522.99,-975.44 528.22,-975.95"/>
</g>
<!-- generic -->
<g id="node3" class="node">
<title>generic</title>
<path fill="#ffffff" stroke="#5b7fa6" stroke-width="1.1" d="M707,-1074C707,-1074 623,-1074 623,-1074 617,-1074 611,-1068 611,-1062 611,-1062 611,-1048 611,-1048 611,-1042 617,-1036 623,-1036 623,-1036 707,-1036 707,-1036 713,-1036 719,-1042 719,-1048 719,-1048 719,-1062 719,-1062 719,-1068 713,-1074 707,-1074"/>
<text text-anchor="middle" x="665" y="-1058.4" font-family="Helvetica,Arial,sans-serif" font-size="12.00">Generic</text>
<text text-anchor="middle" x="665" y="-1045.4" font-family="Helvetica,Arial,sans-serif" font-size="12.00">(manual values)</text>
</g>
<!-- gen_adapter -->
<g id="node6" class="node">
<title>gen_adapter</title>
<path fill="lightgrey" stroke="black" stroke-width="1.1" d="M699.5,-968C699.5,-968 616.5,-968 616.5,-968 610.5,-968 604.5,-962 604.5,-956 604.5,-956 604.5,-944 604.5,-944 604.5,-938 610.5,-932 616.5,-932 616.5,-932 699.5,-932 699.5,-932 705.5,-932 711.5,-938 711.5,-944 711.5,-944 711.5,-956 711.5,-956 711.5,-962 705.5,-968 699.5,-968"/>
<text text-anchor="middle" x="658" y="-946.9" font-family="Helvetica,Arial,sans-serif" font-size="12.00">GenericAdapter</text>
</g>
<!-- generic&#45;&gt;gen_adapter -->
<g id="edge3" class="edge">
<title>generic&#45;&gt;gen_adapter</title>
<path fill="none" stroke="#7b8794" stroke-width="1.1" d="M663.75,-1035.59C662.62,-1019.03 660.96,-994.55 659.71,-976.19"/>
<polygon fill="#7b8794" stroke="#7b8794" stroke-width="1.1" points="662.3,-975.53 659.17,-968.23 657.06,-975.89 662.3,-975.53"/>
</g>
<!-- events -->
<g id="node7" class="node">
<title>events</title>
<path fill="#ffffff" stroke="#5b7fa6" stroke-width="1.1" d="M533,-874C533,-874 345,-874 345,-874 339,-874 333,-868 333,-862 333,-862 333,-835 333,-835 333,-829 339,-823 345,-823 345,-823 533,-823 533,-823 539,-823 545,-829 545,-835 545,-835 545,-862 545,-862 545,-868 539,-874 533,-874"/>
<text text-anchor="middle" x="439" y="-858.4" font-family="Helvetica,Arial,sans-serif" font-size="12.00">TrainingEvent</text>
<text text-anchor="middle" x="439" y="-845.4" font-family="Helvetica,Arial,sans-serif" font-size="12.00">GradientSnapshot · CircuitMetadata</text>
<text text-anchor="middle" x="439" y="-832.4" font-family="Helvetica,Arial,sans-serif" font-size="12.00">OptimizerMetadata</text>
</g>
<!-- pl_adapter&#45;&gt;events -->
<!-- pl_adapter&#45;&gt;events -->
<g id="edge5" class="edge">
<title>pl_adapter&#45;&gt;events</title>
<path fill="none" stroke="#7b8794" stroke-width="1.1" d="M409.93,-931.67C417.73,-917.86 426.69,-898.15 432.94,-881.49"/>
<polygon fill="#7b8794" stroke="#7b8794" stroke-width="1.1" points="435.53,-882.03 435.6,-874.09 430.59,-880.26 435.53,-882.03"/>
</g>
<!-- qk_adapter&#45;&gt;events -->
<g id="edge6" class="edge">
<title>qk_adapter&#45;&gt;events</title>
<path fill="none" stroke="#7b8794" stroke-width="1.1" d="M512.5,-931.67C499.7,-917.36 481.24,-896.72 466.02,-879.7"/>
<polygon fill="#7b8794" stroke="#7b8794" stroke-width="1.1" points="467.95,-877.93 460.99,-874.09 464.04,-881.43 467.95,-877.93"/>
</g>
<!-- gen_adapter&#45;&gt;events -->
<g id="edge7" class="edge">
<title>gen_adapter&#45;&gt;events</title>
<path fill="none" stroke="#7b8794" stroke-width="1.1" d="M620.35,-931.9C587.31,-916.88 538.64,-894.77 500.04,-877.23"/>
<polygon fill="#7b8794" stroke="#7b8794" stroke-width="1.1" points="500.87,-874.72 492.95,-874.01 498.69,-879.5 500.87,-874.72"/>
</g>
<!-- monitor -->
<g id="node8" class="node">
<title>monitor</title>
<path fill="#fdf0da" stroke="#c48a2e" stroke-width="1.6" d="M556.5,-773C556.5,-773 321.5,-773 321.5,-773 315.5,-773 309.5,-767 309.5,-761 309.5,-761 309.5,-731 309.5,-731 309.5,-725 315.5,-719 321.5,-719 321.5,-719 556.5,-719 556.5,-719 562.5,-719 568.5,-725 568.5,-731 568.5,-731 568.5,-761 568.5,-761 568.5,-767 562.5,-773 556.5,-773"/>
<text text-anchor="middle" x="439" y="-756.6" font-family="Helvetica,Arial,sans-serif" font-size="13.00">QMLMonitor.update() / finish()</text>
<text text-anchor="middle" x="439" y="-742.6" font-family="Helvetica,Arial,sans-serif" font-size="13.00">(qml_observer.core)</text>
<text text-anchor="middle" x="439" y="-728.6" font-family="Helvetica,Arial,sans-serif" font-size="13.00">RunState · fail&#45;open error handling</text>
</g>
<!-- events&#45;&gt;monitor -->
<g id="edge8" class="edge">
<title>events&#45;&gt;monitor</title>
<path fill="none" stroke="#7b8794" stroke-width="1.1" d="M439,-822.91C439,-810.28 439,-794.7 439,-780.94"/>
<polygon fill="#7b8794" stroke="#7b8794" stroke-width="1.1" points="441.63,-780.59 439,-773.09 436.38,-780.59 441.63,-780.59"/>
</g>
<!-- rolling -->
<g id="node9" class="node">
<title>rolling</title>
<path fill="#ffffff" stroke="#6a9a67" stroke-width="1.1" d="M345.5,-640C345.5,-640 216.5,-640 216.5,-640 210.5,-640 204.5,-634 204.5,-628 204.5,-628 204.5,-614 204.5,-614 204.5,-608 210.5,-602 216.5,-602 216.5,-602 345.5,-602 345.5,-602 351.5,-602 357.5,-608 357.5,-614 357.5,-614 357.5,-628 357.5,-628 357.5,-634 351.5,-640 345.5,-640"/>
<text text-anchor="middle" x="281" y="-624.4" font-family="Helvetica,Arial,sans-serif" font-size="12.00">RollingWindow</text>
<text text-anchor="middle" x="281" y="-611.4" font-family="Helvetica,Arial,sans-serif" font-size="12.00">(mean · variance · slope)</text>
</g>
<!-- monitor&#45;&gt;rolling -->
<g id="edge9" class="edge">
<title>monitor&#45;&gt;rolling</title>
<path fill="none" stroke="#7b8794" stroke-width="1.1" d="M405.49,-718.91C377.31,-696.98 337.42,-665.93 310.45,-644.93"/>
<polygon fill="#7b8794" stroke="#7b8794" stroke-width="1.1" points="311.76,-642.62 304.23,-640.08 308.53,-646.76 311.76,-642.62"/>
</g>
<!-- gradstats -->
<g id="node10" class="node">
<title>gradstats</title>
<path fill="#ffffff" stroke="#6a9a67" stroke-width="1.1" d="M486.5,-640C486.5,-640 391.5,-640 391.5,-640 385.5,-640 379.5,-634 379.5,-628 379.5,-628 379.5,-614 379.5,-614 379.5,-608 385.5,-602 391.5,-602 391.5,-602 486.5,-602 486.5,-602 492.5,-602 498.5,-608 498.5,-614 498.5,-614 498.5,-628 498.5,-628 498.5,-634 492.5,-640 486.5,-640"/>
<text text-anchor="middle" x="439" y="-624.4" font-family="Helvetica,Arial,sans-serif" font-size="12.00">gradient_norm</text>
<text text-anchor="middle" x="439" y="-611.4" font-family="Helvetica,Arial,sans-serif" font-size="12.00">gradient_variance</text>
</g>
<!-- monitor&#45;&gt;gradstats -->
<g id="edge10" class="edge">
<title>monitor&#45;&gt;gradstats</title>
<path fill="none" stroke="#7b8794" stroke-width="1.1" d="M439,-718.91C439,-697.9 439,-668.53 439,-647.64"/>
<polygon fill="#7b8794" stroke="#7b8794" stroke-width="1.1" points="441.63,-647.58 439,-640.08 436.38,-647.58 441.63,-647.58"/>
</g>
<!-- lossstats -->
<g id="node11" class="node">
<title>lossstats</title>
<path fill="#ffffff" stroke="#6a9a67" stroke-width="1.1" d="M170,-640C170,-640 28,-640 28,-640 22,-640 16,-634 16,-628 16,-628 16,-614 16,-614 16,-608 22,-602 28,-602 28,-602 170,-602 170,-602 176,-602 182,-608 182,-614 182,-614 182,-628 182,-628 182,-634 176,-640 170,-640"/>
<text text-anchor="middle" x="99" y="-624.4" font-family="Helvetica,Arial,sans-serif" font-size="12.00">loss_slope</text>
<text text-anchor="middle" x="99" y="-611.4" font-family="Helvetica,Arial,sans-serif" font-size="12.00">relative_loss_improvement</text>
</g>
<!-- monitor&#45;&gt;lossstats -->
<g id="edge11" class="edge">
<title>monitor&#45;&gt;lossstats</title>
<path fill="none" stroke="#7b8794" stroke-width="1.1" d="M341.93,-719C296.14,-705.73 241.12,-688.31 193,-669 174.78,-661.69 155.26,-652.22 138.76,-643.69"/>
<polygon fill="#7b8794" stroke="#7b8794" stroke-width="1.1" points="139.75,-641.25 131.89,-640.11 137.32,-645.9 139.75,-641.25"/>
</g>
<!-- reporter -->
<g id="node22" class="node">
<title>reporter</title>
<path fill="#ffffff" stroke="#5b7fa6" stroke-width="1.1" d="M566.5,-195C566.5,-195 499.5,-195 499.5,-195 493.5,-195 487.5,-189 487.5,-183 487.5,-183 487.5,-171 487.5,-171 487.5,-165 493.5,-159 499.5,-159 499.5,-159 566.5,-159 566.5,-159 572.5,-159 578.5,-165 578.5,-171 578.5,-171 578.5,-183 578.5,-183 578.5,-189 572.5,-195 566.5,-195"/>
<text text-anchor="middle" x="533" y="-173.9" font-family="Helvetica,Arial,sans-serif" font-size="12.00">RunReporter</text>
</g>
<!-- monitor&#45;&gt;reporter -->
<g id="edge29" class="edge">
<title>monitor&#45;&gt;reporter</title>
<path fill="none" stroke="#7b8794" stroke-width="1.1" stroke-dasharray="5,2" d="M475.34,-718.81C501.79,-696.44 533,-661.64 533,-622 533,-622 533,-622 533,-272 533,-248.58 533,-221.88 533,-202.94"/>
<polygon fill="#7b8794" stroke="#7b8794" stroke-width="1.1" points="535.63,-202.82 533,-195.32 530.38,-202.83 535.63,-202.82"/>
<text text-anchor="middle" x="578.5" y="-428.5" font-family="Helvetica,Arial,sans-serif" font-size="10.00" fill="#3e4c59"> &#160;events + diagnoses</text>
</g>
<!-- collector -->
<g id="node27" class="node">
<title>collector</title>
<path fill="#ffffff" stroke="#7b8794" stroke-width="1.1" d="M731.5,-640C731.5,-640 600.5,-640 600.5,-640 594.5,-640 588.5,-634 588.5,-628 588.5,-628 588.5,-614 588.5,-614 588.5,-608 594.5,-602 600.5,-602 600.5,-602 731.5,-602 731.5,-602 737.5,-602 743.5,-608 743.5,-614 743.5,-614 743.5,-628 743.5,-628 743.5,-634 737.5,-640 731.5,-640"/>
<text text-anchor="middle" x="666" y="-624.4" font-family="Helvetica,Arial,sans-serif" font-size="12.00">TelemetryCollector</text>
<text text-anchor="middle" x="666" y="-611.4" font-family="Helvetica,Arial,sans-serif" font-size="12.00">(local queue or endpoint)</text>
</g>
<!-- monitor&#45;&gt;collector -->
<g id="edge33" class="edge">
<title>monitor&#45;&gt;collector</title>
<path fill="none" stroke="#9aa5b1" stroke-width="1.1" stroke-dasharray="5,2" d="M507.88,-718.98C520.89,-713.07 534.14,-706.34 546,-699 558.87,-691.03 559.64,-685.74 572,-677 588.76,-665.14 608.21,-653.45 625.06,-643.91"/>
<polygon fill="#9aa5b1" stroke="#9aa5b1" stroke-width="1.1" points="626.36,-646.19 631.62,-640.23 623.79,-641.61 626.36,-646.19"/>
<text text-anchor="middle" x="616.5" y="-691" font-family="Helvetica,Arial,sans-serif" font-size="10.00" fill="#52606d"> &#160;anonymized record</text>
<text text-anchor="middle" x="616.5" y="-680" font-family="Helvetica,Arial,sans-serif" font-size="10.00" fill="#52606d"> &#160;iff enabled</text>
</g>
<!-- bp -->
<g id="node12" class="node">
<title>bp</title>
<path fill="#ffffff" stroke="#a97e2f" stroke-width="1.1" d="M486.5,-544C486.5,-544 365.5,-544 365.5,-544 359.5,-544 353.5,-538 353.5,-532 353.5,-532 353.5,-520 353.5,-520 353.5,-514 359.5,-508 365.5,-508 365.5,-508 486.5,-508 486.5,-508 492.5,-508 498.5,-514 498.5,-520 498.5,-520 498.5,-532 498.5,-532 498.5,-538 492.5,-544 486.5,-544"/>
<text text-anchor="middle" x="426" y="-522.9" font-family="Helvetica,Arial,sans-serif" font-size="12.00">BarrenPlateauDetector</text>
</g>
<!-- rolling&#45;&gt;bp -->
<g id="edge12" class="edge">
<title>rolling&#45;&gt;bp</title>
<path fill="none" stroke="#7b8794" stroke-width="1.1" d="M309.3,-601.85C333.21,-586.51 367.49,-564.53 392.71,-548.35"/>
<polygon fill="#7b8794" stroke="#7b8794" stroke-width="1.1" points="394.34,-550.42 399.24,-544.16 391.51,-546 394.34,-550.42"/>
</g>
<!-- stag -->
<g id="node13" class="node">
<title>stag</title>
<path fill="#ffffff" stroke="#a97e2f" stroke-width="1.1" d="M319.5,-544C319.5,-544 218.5,-544 218.5,-544 212.5,-544 206.5,-538 206.5,-532 206.5,-532 206.5,-520 206.5,-520 206.5,-514 212.5,-508 218.5,-508 218.5,-508 319.5,-508 319.5,-508 325.5,-508 331.5,-514 331.5,-520 331.5,-520 331.5,-532 331.5,-532 331.5,-538 325.5,-544 319.5,-544"/>
<text text-anchor="middle" x="269" y="-522.9" font-family="Helvetica,Arial,sans-serif" font-size="12.00">StagnationDetector</text>
</g>
<!-- rolling&#45;&gt;stag -->
<g id="edge13" class="edge">
<title>rolling&#45;&gt;stag</title>
<path fill="none" stroke="#7b8794" stroke-width="1.1" d="M278.63,-601.63C276.79,-587.38 274.23,-567.5 272.2,-551.83"/>
<polygon fill="#7b8794" stroke="#7b8794" stroke-width="1.1" points="274.77,-551.18 271.2,-544.08 269.56,-551.86 274.77,-551.18"/>
</g>
<!-- conv -->
<g id="node14" class="node">
<title>conv</title>
<path fill="#ffffff" stroke="#a97e2f" stroke-width="1.1" d="M172,-544C172,-544 56,-544 56,-544 50,-544 44,-538 44,-532 44,-532 44,-520 44,-520 44,-514 50,-508 56,-508 56,-508 172,-508 172,-508 178,-508 184,-514 184,-520 184,-520 184,-532 184,-532 184,-538 178,-544 172,-544"/>
<text text-anchor="middle" x="114" y="-522.9" font-family="Helvetica,Arial,sans-serif" font-size="12.00">ConvergenceDetector</text>
</g>
<!-- rolling&#45;&gt;conv -->
<g id="edge14" class="edge">
<title>rolling&#45;&gt;conv</title>
<path fill="none" stroke="#7b8794" stroke-width="1.1" d="M247.44,-601.82C231.52,-593.16 212.24,-582.61 195,-573 180.43,-564.88 164.46,-555.84 150.57,-547.94"/>
<polygon fill="#7b8794" stroke="#7b8794" stroke-width="1.1" points="151.75,-545.59 143.94,-544.16 149.15,-550.15 151.75,-545.59"/>
</g>
<!-- gradstats&#45;&gt;bp -->
<g id="edge15" class="edge">
<title>gradstats&#45;&gt;bp</title>
<path fill="none" stroke="#7b8794" stroke-width="1.1" d="M436.43,-601.63C434.44,-587.38 431.66,-567.5 429.47,-551.83"/>
<polygon fill="#7b8794" stroke="#7b8794" stroke-width="1.1" points="432.03,-551.15 428.39,-544.08 426.83,-551.87 432.03,-551.15"/>
</g>
<!-- lossstats&#45;&gt;stag -->
<g id="edge16" class="edge">
<title>lossstats&#45;&gt;stag</title>
<path fill="none" stroke="#7b8794" stroke-width="1.1" d="M138.23,-601.9C155.8,-593.51 176.66,-583.16 195,-573 208.86,-565.32 223.77,-556.23 236.54,-548.16"/>
<polygon fill="#7b8794" stroke="#7b8794" stroke-width="1.1" points="238.09,-550.29 243.01,-544.05 235.28,-545.86 238.09,-550.29"/>
</g>
<!-- lossstats&#45;&gt;conv -->
<g id="edge17" class="edge">
<title>lossstats&#45;&gt;conv</title>
<path fill="none" stroke="#7b8794" stroke-width="1.1" d="M101.96,-601.63C104.26,-587.38 107.47,-567.5 109.99,-551.83"/>
<polygon fill="#7b8794" stroke="#7b8794" stroke-width="1.1" points="112.64,-551.9 111.24,-544.08 107.46,-551.07 112.64,-551.9"/>
</g>
<!-- scoring -->
<g id="node15" class="node">
<title>scoring</title>
<path fill="#ffffff" stroke="#7a5ea8" stroke-width="1.1" d="M358.5,-450C358.5,-450 179.5,-450 179.5,-450 173.5,-450 167.5,-444 167.5,-438 167.5,-438 167.5,-424 167.5,-424 167.5,-418 173.5,-412 179.5,-412 179.5,-412 358.5,-412 358.5,-412 364.5,-412 370.5,-418 370.5,-424 370.5,-424 370.5,-438 370.5,-438 370.5,-444 364.5,-450 358.5,-450"/>
<text text-anchor="middle" x="269" y="-434.4" font-family="Helvetica,Arial,sans-serif" font-size="12.00">combine_detector_results()</text>
<text text-anchor="middle" x="269" y="-421.4" font-family="Helvetica,Arial,sans-serif" font-size="12.00">(weighted evidence, deterministic)</text>
</g>
<!-- bp&#45;&gt;scoring -->
<g id="edge18" class="edge">
<title>bp&#45;&gt;scoring</title>
<path fill="none" stroke="#7b8794" stroke-width="1.1" d="M397.2,-507.94C371.55,-492.75 333.87,-470.43 305.99,-453.91"/>
<polygon fill="#7b8794" stroke="#7b8794" stroke-width="1.1" points="307.28,-451.62 299.49,-450.06 304.6,-456.14 307.28,-451.62"/>
</g>
<!-- stag&#45;&gt;scoring -->
<g id="edge19" class="edge">
<title>stag&#45;&gt;scoring</title>
<path fill="none" stroke="#7b8794" stroke-width="1.1" d="M269,-507.94C269,-494.01 269,-474.09 269,-458.14"/>
<polygon fill="#7b8794" stroke="#7b8794" stroke-width="1.1" points="271.63,-457.72 269,-450.22 266.38,-457.72 271.63,-457.72"/>
</g>
<!-- conv&#45;&gt;scoring -->
<g id="edge20" class="edge">
<title>conv&#45;&gt;scoring</title>
<path fill="none" stroke="#7b8794" stroke-width="1.1" d="M142.43,-507.94C167.65,-492.81 204.64,-470.62 232.13,-454.12"/>
<polygon fill="#7b8794" stroke="#7b8794" stroke-width="1.1" points="233.82,-456.17 238.9,-450.06 231.12,-451.67 233.82,-456.17"/>
</g>
<!-- explain -->
<g id="node16" class="node">
<title>explain</title>
<path fill="#ffffff" stroke="#7a5ea8" stroke-width="1.1" d="M344,-371C344,-371 198,-371 198,-371 192,-371 186,-365 186,-359 186,-359 186,-345 186,-345 186,-339 192,-333 198,-333 198,-333 344,-333 344,-333 350,-333 356,-339 356,-345 356,-345 356,-359 356,-359 356,-365 350,-371 344,-371"/>
<text text-anchor="middle" x="271" y="-355.4" font-family="Helvetica,Arial,sans-serif" font-size="12.00">explanations.py</text>
<text text-anchor="middle" x="271" y="-342.4" font-family="Helvetica,Arial,sans-serif" font-size="12.00">(human&#45;readable evidence)</text>
</g>
<!-- scoring&#45;&gt;explain -->
<g id="edge21" class="edge">
<title>scoring&#45;&gt;explain</title>
<path fill="none" stroke="#7b8794" stroke-width="1.1" d="M269.47,-411.75C269.73,-401.88 270.05,-389.51 270.33,-378.68"/>
<polygon fill="#7b8794" stroke="#7b8794" stroke-width="1.1" points="272.96,-378.68 270.53,-371.12 267.71,-378.55 272.96,-378.68"/>
</g>
<!-- diagnosisresult -->
<g id="node17" class="node">
<title>diagnosisresult</title>
<path fill="#f2ecf7" stroke="#7a5ea8" stroke-width="1.4" d="M351.5,-292C351.5,-292 196.5,-292 196.5,-292 190.5,-292 184.5,-286 184.5,-280 184.5,-280 184.5,-266 184.5,-266 184.5,-260 190.5,-254 196.5,-254 196.5,-254 351.5,-254 351.5,-254 357.5,-254 363.5,-260 363.5,-266 363.5,-266 363.5,-280 363.5,-280 363.5,-286 357.5,-292 351.5,-292"/>
<text text-anchor="middle" x="274" y="-276.4" font-family="Helvetica,Arial,sans-serif" font-size="12.00">DiagnosisResult</text>
<text text-anchor="middle" x="274" y="-263.4" font-family="Helvetica,Arial,sans-serif" font-size="12.00">issue · confidence · degraded</text>
</g>
<!-- explain&#45;&gt;diagnosisresult -->
<g id="edge22" class="edge">
<title>explain&#45;&gt;diagnosisresult</title>
<path fill="none" stroke="#7b8794" stroke-width="1.1" d="M271.71,-332.75C272.1,-322.88 272.58,-310.51 273,-299.68"/>
<polygon fill="#7b8794" stroke="#7b8794" stroke-width="1.1" points="275.63,-299.71 273.29,-292.12 270.38,-299.51 275.63,-299.71"/>
</g>
<!-- actionpolicy -->
<g id="node18" class="node">
<title>actionpolicy</title>
<path fill="lightgrey" stroke="black" stroke-width="1.1" d="M369,-196C369,-196 179,-196 179,-196 173,-196 167,-190 167,-184 167,-184 167,-170 167,-170 167,-164 173,-158 179,-158 179,-158 369,-158 369,-158 375,-158 381,-164 381,-170 381,-170 381,-184 381,-184 381,-190 375,-196 369,-196"/>
<text text-anchor="middle" x="274" y="-180.4" font-family="Helvetica,Arial,sans-serif" font-size="12.00">ActionPolicy</text>
<text text-anchor="middle" x="274" y="-167.4" font-family="Helvetica,Arial,sans-serif" font-size="12.00">(log · warn · pause* · stop · adaptive)</text>
</g>
<!-- diagnosisresult&#45;&gt;actionpolicy -->
<g id="edge26" class="edge">
<title>diagnosisresult&#45;&gt;actionpolicy</title>
<path fill="none" stroke="#7b8794" stroke-width="1.1" d="M274,-253.88C274,-239.7 274,-219.81 274,-203.94"/>
<polygon fill="#7b8794" stroke="#7b8794" stroke-width="1.1" points="276.63,-203.57 274,-196.07 271.38,-203.57 276.63,-203.57"/>
</g>
<!-- diagnosisresult&#45;&gt;reporter -->
<g id="edge30" class="edge">
<title>diagnosisresult&#45;&gt;reporter</title>
<path fill="none" stroke="#7b8794" stroke-width="1.1" stroke-dasharray="5,2" d="M351.19,-253.94C380.1,-246.26 412.97,-236.42 442,-225 460.68,-217.65 480.58,-207.65 496.99,-198.76"/>
<polygon fill="#7b8794" stroke="#7b8794" stroke-width="1.1" points="498.48,-200.93 503.79,-195.03 495.95,-196.33 498.48,-200.93"/>
</g>
<!-- logaction -->
<g id="node19" class="node">
<title>logaction</title>
<path fill="#e3eee6" stroke="#4f8a5b" stroke-width="1.1" d="M188.5,-116C188.5,-116 135.5,-116 135.5,-116 129.5,-116 123.5,-110 123.5,-104 123.5,-104 123.5,-92 123.5,-92 123.5,-86 129.5,-80 135.5,-80 135.5,-80 188.5,-80 188.5,-80 194.5,-80 200.5,-86 200.5,-92 200.5,-92 200.5,-104 200.5,-104 200.5,-110 194.5,-116 188.5,-116"/>
<text text-anchor="middle" x="162" y="-94.9" font-family="Helvetica,Arial,sans-serif" font-size="12.00">LogAction</text>
</g>
<!-- actionpolicy&#45;&gt;logaction -->
<g id="edge23" class="edge">
<title>actionpolicy&#45;&gt;logaction</title>
<path fill="none" stroke="#7b8794" stroke-width="1.1" d="M247.74,-157.95C231.53,-146.8 210.64,-132.44 193.53,-120.68"/>
<polygon fill="#7b8794" stroke="#7b8794" stroke-width="1.1" points="194.61,-118.23 186.94,-116.15 191.63,-122.56 194.61,-118.23"/>
</g>
<!-- alertaction -->
<g id="node20" class="node">
<title>alertaction</title>
<path fill="#fbf1d6" stroke="#b8912f" stroke-width="1.1" d="M313,-117C313,-117 235,-117 235,-117 229,-117 223,-111 223,-105 223,-105 223,-91 223,-91 223,-85 229,-79 235,-79 235,-79 313,-79 313,-79 319,-79 325,-85 325,-91 325,-91 325,-105 325,-105 325,-111 319,-117 313,-117"/>
<text text-anchor="middle" x="274" y="-101.4" font-family="Helvetica,Arial,sans-serif" font-size="12.00">AlertAction</text>
<text text-anchor="middle" x="274" y="-88.4" font-family="Helvetica,Arial,sans-serif" font-size="12.00">(warn / pause*)</text>
</g>
<!-- actionpolicy&#45;&gt;alertaction -->
<g id="edge24" class="edge">
<title>actionpolicy&#45;&gt;alertaction</title>
<path fill="none" stroke="#7b8794" stroke-width="1.1" d="M274,-157.75C274,-147.88 274,-135.51 274,-124.68"/>
<polygon fill="#7b8794" stroke="#7b8794" stroke-width="1.1" points="276.63,-124.62 274,-117.12 271.38,-124.62 276.63,-124.62"/>
</g>
<!-- stopaction -->
<g id="node21" class="node">
<title>stopaction</title>
<path fill="#f8e0df" stroke="#b8514a" stroke-width="1.1" d="M416.5,-116C416.5,-116 359.5,-116 359.5,-116 353.5,-116 347.5,-110 347.5,-104 347.5,-104 347.5,-92 347.5,-92 347.5,-86 353.5,-80 359.5,-80 359.5,-80 416.5,-80 416.5,-80 422.5,-80 428.5,-86 428.5,-92 428.5,-92 428.5,-104 428.5,-104 428.5,-110 422.5,-116 416.5,-116"/>
<text text-anchor="middle" x="388" y="-94.9" font-family="Helvetica,Arial,sans-serif" font-size="12.00">StopAction</text>
</g>
<!-- actionpolicy&#45;&gt;stopaction -->
<g id="edge25" class="edge">
<title>actionpolicy&#45;&gt;stopaction</title>
<path fill="none" stroke="#7b8794" stroke-width="1.1" d="M300.73,-157.95C317.37,-146.7 338.87,-132.18 356.37,-120.37"/>
<polygon fill="#7b8794" stroke="#7b8794" stroke-width="1.1" points="357.87,-122.52 362.61,-116.15 354.93,-118.17 357.87,-122.52"/>
</g>
<!-- jsonl -->
<g id="node23" class="node">
<title>jsonl</title>
<path fill="#ffffff" stroke="#5b7fa6" stroke-width="1.1" d="M715,-117C715,-117 639,-117 639,-117 633,-117 627,-111 627,-105 627,-105 627,-91 627,-91 627,-85 633,-79 639,-79 639,-79 715,-79 715,-79 721,-79 727,-85 727,-91 727,-91 727,-105 727,-105 727,-111 721,-117 715,-117"/>
<text text-anchor="middle" x="677" y="-101.4" font-family="Helvetica,Arial,sans-serif" font-size="12.00">JSONL event /</text>
<text text-anchor="middle" x="677" y="-88.4" font-family="Helvetica,Arial,sans-serif" font-size="12.00">diagnosis log</text>
</g>
<!-- reporter&#45;&gt;jsonl -->
<g id="edge27" class="edge">
<title>reporter&#45;&gt;jsonl</title>
<path fill="none" stroke="#7b8794" stroke-width="1.1" d="M564.96,-158.91C585.98,-147.67 613.69,-132.85 636.29,-120.77"/>
<polygon fill="#7b8794" stroke="#7b8794" stroke-width="1.1" points="637.75,-122.97 643.12,-117.11 635.27,-118.34 637.75,-122.97"/>
</g>
<!-- summary -->
<g id="node24" class="node">
<title>summary</title>
<path fill="#ffffff" stroke="#5b7fa6" stroke-width="1.1" d="M593,-117C593,-117 465,-117 465,-117 459,-117 453,-111 453,-105 453,-105 453,-91 453,-91 453,-85 459,-79 465,-79 465,-79 593,-79 593,-79 599,-79 605,-85 605,-91 605,-91 605,-105 605,-105 605,-111 599,-117 593,-117"/>
<text text-anchor="middle" x="529" y="-101.4" font-family="Helvetica,Arial,sans-serif" font-size="12.00">run summary +</text>
<text text-anchor="middle" x="529" y="-88.4" font-family="Helvetica,Arial,sans-serif" font-size="12.00">compute&#45;saved estimate</text>
</g>
<!-- reporter&#45;&gt;summary -->
<g id="edge28" class="edge">
<title>reporter&#45;&gt;summary</title>
<path fill="none" stroke="#7b8794" stroke-width="1.1" d="M532.11,-158.91C531.59,-148.93 530.93,-136.13 530.35,-124.93"/>
<polygon fill="#7b8794" stroke="#7b8794" stroke-width="1.1" points="532.95,-124.47 529.94,-117.11 527.71,-124.74 532.95,-124.47"/>
</g>
<!-- cli -->
<g id="node25" class="node">
<title>cli</title>
<path fill="#eef4fa" stroke="#5b7fa6" stroke-width="1.1" d="M719.5,-38C719.5,-38 514.5,-38 514.5,-38 508.5,-38 502.5,-32 502.5,-26 502.5,-26 502.5,-12 502.5,-12 502.5,-6 508.5,0 514.5,0 514.5,0 719.5,0 719.5,0 725.5,0 731.5,-6 731.5,-12 731.5,-12 731.5,-26 731.5,-26 731.5,-32 725.5,-38 719.5,-38"/>
<text text-anchor="middle" x="617" y="-22.4" font-family="Helvetica,Arial,sans-serif" font-size="12.00">8. CLI &#160;(qml_observer.cli)</text>
<text text-anchor="middle" x="617" y="-9.4" font-family="Helvetica,Arial,sans-serif" font-size="12.00">qml&#45;observer {inspect,report,telemetry}</text>
</g>
<!-- jsonl&#45;&gt;cli -->
<g id="edge31" class="edge">
<title>jsonl&#45;&gt;cli</title>
<path fill="none" stroke="#7b8794" stroke-width="1.1" d="M662.78,-78.75C654.71,-68.4 644.51,-55.31 635.79,-44.11"/>
<polygon fill="#7b8794" stroke="#7b8794" stroke-width="1.1" points="637.8,-42.42 631.12,-38.12 633.66,-45.65 637.8,-42.42"/>
</g>
<!-- summary&#45;&gt;cli -->
<g id="edge32" class="edge">
<title>summary&#45;&gt;cli</title>
<path fill="none" stroke="#7b8794" stroke-width="1.1" d="M549.85,-78.75C562.02,-68.11 577.48,-54.58 590.5,-43.18"/>
<polygon fill="#7b8794" stroke="#7b8794" stroke-width="1.1" points="592.38,-45.03 596.29,-38.12 588.92,-41.08 592.38,-45.03"/>
</g>
<!-- consent -->
<g id="node26" class="node">
<title>consent</title>
<path fill="#ffffff" stroke="#7b8794" stroke-width="1.1" d="M711,-765C711,-765 623,-765 623,-765 617,-765 611,-759 611,-753 611,-753 611,-739 611,-739 611,-733 617,-727 623,-727 623,-727 711,-727 711,-727 717,-727 723,-733 723,-739 723,-739 723,-753 723,-753 723,-759 717,-765 711,-765"/>
<text text-anchor="middle" x="667" y="-749.4" font-family="Helvetica,Arial,sans-serif" font-size="12.00">consent.py</text>
<text text-anchor="middle" x="667" y="-736.4" font-family="Helvetica,Arial,sans-serif" font-size="12.00">(persisted opt&#45;in)</text>
</g>
<!-- consent&#45;&gt;collector -->
<g id="edge34" class="edge">
<title>consent&#45;&gt;collector</title>
<path fill="none" stroke="#9aa5b1" stroke-width="1.1" stroke-dasharray="1,5" d="M666.79,-719.28C666.6,-695.63 666.32,-661.15 666.15,-640.22"/>
<polygon fill="#9aa5b1" stroke="#9aa5b1" stroke-width="1.1" points="664.17,-719.37 666.85,-726.85 669.42,-719.33 664.17,-719.37"/>
</g>
<!-- legend -->
<g id="node28" class="node">
<title>legend</title>
<path fill="lightgrey" stroke="transparent" stroke-width="1.1" d="M1051,-1101C1051,-1101 755,-1101 755,-1101 749,-1101 743,-1095 743,-1089 743,-1089 743,-1021 743,-1021 743,-1015 749,-1009 755,-1009 755,-1009 1051,-1009 1051,-1009 1057,-1009 1063,-1015 1063,-1021 1063,-1021 1063,-1089 1063,-1089 1063,-1095 1057,-1101 1051,-1101"/>
<text text-anchor="start" x="760" y="-1081" font-family="Helvetica,Arial,sans-serif" font-size="10.00">──▶ solid</text>
<text text-anchor="start" x="823" y="-1081" font-family="Helvetica,Arial,sans-serif" font-size="10.00">direct call / data flow</text>
<text text-anchor="start" x="760" y="-1062" font-family="Helvetica,Arial,sans-serif" font-size="10.00">&#45; &#45; ▶ dashed</text>
<text text-anchor="start" x="823" y="-1062" font-family="Helvetica,Arial,sans-serif" font-size="10.00">optional / conditional flow</text>
<text text-anchor="start" x="760" y="-1043" font-family="Helvetica,Arial,sans-serif" font-size="10.00">···▶ dotted</text>
<text text-anchor="start" x="823" y="-1043" font-family="Helvetica,Arial,sans-serif" font-size="10.00">gates whether the flow occurs</text>
<text text-anchor="start" x="760" y="-1024" font-family="Helvetica,Arial,sans-serif" font-size="10.00">*</text>
<text text-anchor="start" x="823" y="-1024" font-family="Helvetica,Arial,sans-serif" font-size="10.00">&quot;pause&quot; currently behaves as &quot;warn&quot; (Milestone 13)</text>
</g>
</g>
</svg>
